<svg width="678" height="213" viewBox="0 0 678 213" fill="none" xmlns="http://www.w3.org/2000/svg">
<path d="M343 0C400.122 0 450.421 30.808 479.785 77.5303C498.319 68.8776 519.29 64 541.5 64C616.887 64 678 120.188 678 189.5C678 258.812 616.887 315 541.5 315C511.966 315 484.623 306.375 462.287 291.717C432.385 325.138 390.003 346 343 346C294.402 346 250.744 323.701 220.713 288.274C197.516 305.016 168.277 315 136.5 315C61.1131 315 0 258.812 0 189.5C0 120.188 61.1131 64 136.5 64C161.195 64 184.358 70.0301 204.344 80.5752C233.412 32.1509 284.646 0 343 0Z" fill="url(#paint0_linear_40_266)"/>
<defs>
<linearGradient id="paint0_linear_40_266" x1="678" y1="199.5" x2="-5.52602e-06" y2="203.5" gradientUnits="userSpaceOnUse">
<stop stop-color="#282F44"/>
<stop offset="0.418269" stop-color="#191D32"/>
<stop offset="0.725962" stop-color="#282F44"/>
<stop offset="1" stop-color="#6D3B47"/>
</linearGradient>
</defs>
</svg>
