<svg width="235" height="196" viewBox="0 0 235 196" fill="none" xmlns="http://www.w3.org/2000/svg">
<path d="M103.236 100.932C101.793 66.6563 117.854 29.6783 177.764 2.848C209.398 31.4897 231.862 10.3583 257.479 34.0579C264.494 27.1011 272.584 20.9143 281.665 15.763C332.825 -13.2586 396.057 1.57275 422.899 48.8897C449.74 96.2067 430.026 158.091 378.866 187.113C340.507 208.873 295.361 205.979 263.856 183.224C258.289 188.355 252.064 192.937 245.25 196.802C240.202 199.666 235.017 202.029 229.761 203.91C216.802 227.663 194.538 250.288 165.399 266.818C103.191 302.107 33.2107 296.25 9.09399 253.737C-15.0225 211.224 15.8572 148.153 78.0658 112.864C86.3602 108.158 94.7926 104.185 103.236 100.932Z" fill="url(#paint0_linear_40_261)"/>
<defs>
<linearGradient id="paint0_linear_40_261" x1="142.488" y1="21.7311" x2="271.012" y2="248.296" gradientUnits="userSpaceOnUse">
<stop stop-color="#6D3B47"/>
<stop offset="0.403846" stop-color="#453A49"/>
<stop offset="1" stop-color="#043550"/>
</linearGradient>
</defs>
</svg>
